<?xml version="1.0" encoding="UTF-8"?>
<svg version="1.1" xmlns="http://www.w3.org/2000/svg" width="640" height="640">
<path d="M0 0 C4.84969978 1.01822701 8.50597166 3.50597166 12 7 C13.94074861 6.72382467 13.94074861 6.72382467 16 6 C17.33333333 5.66666667 18.66666667 5.33333333 20 5 C19 12 19 12 18.4375 15.1875 C17.38169244 24.38810875 18.00985851 32.97328681 20 42 C21.32 42 22.64 42 24 42 C29.39059469 47.12763885 31.79763893 53.15513973 32.1875 60.5625 C32.125625 61.366875 32.06375 62.17125 32 63 C32.99 63.33 33.98 63.66 35 64 C35.19456705 65.95764383 35.38044247 67.91615321 35.5625 69.875 C35.66691406 70.96554687 35.77132813 72.05609375 35.87890625 73.1796875 C36 76 36 76 35 78 C35.66 78 36.32 78 37 78 C38.06043371 82.55986495 37.86779894 84.77287609 36 89 C35.71387036 90.45540944 35.44456532 91.91417687 35.1875 93.375 C34.14552741 98.28129612 32.30253591 101.22567325 29 105 C26.8359375 105.6875 26.8359375 105.6875 25 106 C25.0928125 107.051875 25.0928125 107.051875 25.1875 108.125 C24.95636745 111.6690325 23.6057736 113.85268374 22 117 C20.69272992 121.79332363 21.22979434 125.98622953 21.94140625 130.828125 C21.96074219 131.54484375 21.98007812 132.2615625 22 133 C21.34 133.66 20.68 134.32 20 135 C19.34 134.67 18.68 134.34 18 134 C18 133.34 18 132.68 18 132 C11.93949386 130.9187609 11.93949386 130.9187609 6 132 C3.78321767 138.23470031 2.24047884 146.00671175 5 152.26953125 C6.44063388 156.20313703 6.29797751 159.90649909 6.25 164.0625 C6.24250732 164.90288818 6.23501465 165.74327637 6.22729492 166.60913086 C5.9733164 181.41224752 5.9733164 181.41224752 4 186 C2.34508309 186.69532168 0.67825101 187.36305749 -1 188 C-1.77114351 189.84261773 -1.77114351 189.84261773 -2 192 C-2.66182202 193.62697912 -3.3290044 195.25178271 -4 196.875 C-6.77959491 204.60639177 -8.55428487 212.53705342 -5.78515625 220.48828125 C-3.87412498 224.3897754 -2.08520492 227.91479508 1 231 C1 232.32 1 233.64 1 235 C-0.051875 235.0825 -1.10375 235.165 -2.1875 235.25 C-6.34583134 236.0680324 -8.03734506 237.03734506 -11 240 C-13.31596657 243.75947997 -13.0733432 246.59774343 -12.77734375 250.87890625 C-13 253 -13 253 -14.22265625 254.66015625 C-16.23976858 256.18074862 -18.13886543 256.98563931 -20.5 257.875 C-24.43602304 259.52620967 -26.30236836 260.92568406 -28 265 C-30.875 264.6875 -30.875 264.6875 -34 264 C-34.66 263.01 -35.32 262.02 -36 261 C-35.34 260.01 -34.68 259.02 -34 258 C-32.99244329 253.4781653 -32.99244329 253.4781653 -33.65625 249.00390625 C-34 247 -34 247 -32.85546875 245.1484375 C-32.02982422 244.27058594 -32.02982422 244.27058594 -31.1875 243.375 C-30.64480469 242.78460938 -30.10210937 242.19421875 -29.54296875 241.5859375 C-28.37122359 240.38156146 -27.18817262 239.18817262 -26 238 C-27.9267719 236.82739092 -27.9267719 236.82739092 -30 237.125 C-32.2213971 237.84262134 -32.2213971 237.84262134 -33.125 240.25 C-33.41375 241.1575 -33.7025 242.065 -34 243 C-34.391875 243.825 -34.78375 244.65 -35.1875 245.5 C-36.14538946 248.44735219 -35.70318916 250.03097911 -35 253 C-35.33 253.99 -35.66 254.98 -36 256 C-37.32 255.67 -38.64 255.34 -40 255 C-40.33 253.68 -40.66 252.36 -41 251 C-44.05103442 250.71216656 -46.95626137 250.59057675 -50 251 C-52.38560001 252.83431732 -52.38560001 252.83431732 -53 256 C-52.8096184 257.40165006 -52.57615477 258.79776829 -52.3125 260.1875 C-51.50919488 265.4398796 -53.30307325 268.68494206 -56.1640625 273.0234375 C-58.1286113 275.13846238 -59.06033815 275.72290545 -61.875 276.125 C-62.90625 276.08375 -63.9375 276.0425 -65 276 C-67.49153377 272.26269935 -67.41025455 269.32345184 -67 265 C-66.47406064 262.5879333 -65.78264271 260.34792812 -65 258 C-67.94729537 256.84188612 -67.94729537 256.84188612 -71 257 C-71.061875 257.78375 -71.12375 258.5675 -71.1875 259.375 C-71.455625 260.24125 -71.72375 261.1075 -72 262 C-73.2065625 262.4640625 -73.2065625 262.4640625 -74.4375 262.9375 C-77.27788049 263.76675902 -77.27788049 263.76675902 -78.1875 266.75 C-78.455625 267.8225 -78.72375 268.895 -79 270 C-79.66666667 272 -80.33333333 274 -81 276 C-82.670625 275.76023437 -82.670625 275.76023437 -84.375 275.515625 C-89.25409116 274.91003358 -94.08751561 274.77977263 -99 274.75 C-99.85078125 274.729375 -100.7015625 274.70875 -101.578125 274.6875 C-105.89920741 274.66099029 -109.34870178 274.94150933 -113.375 276.578125 C-117.01400213 278.00549221 -117.57056177 278.13873967 -121 277 C-120.375 275.0625 -120.375 275.0625 -119 273 C-115.875 272.25 -115.875 272.25 -113 272 C-113.33 271.34 -113.66 270.68 -114 270 C-114.804375 270 -115.60875 270 -116.4375 270 C-117.625 270 -118.8125 270 -120 270 C-120 270.66 -120 271.32 -120 272 C-121.65 271.67 -123.3 271.34 -125 271 C-126.12880057 267.68885166 -127.21302675 264.41021743 -128 261 C-128.66 261 -129.32 261 -130 261 C-129.95875 261.763125 -129.9175 262.52625 -129.875 263.3125 C-130 266 -130 266 -132 269 C-132.38499891 270.65549531 -132.72793135 272.3222433 -133 274 C-132.278125 274.268125 -131.55625 274.53625 -130.8125 274.8125 C-123.56338028 277.87323944 -123.56338028 277.87323944 -122 281 C-121.875 284.5625 -121.875 284.5625 -122 288 C-123 289 -123 289 -125.72265625 289.09765625 C-127.37587891 289.08025391 -127.37587891 289.08025391 -129.0625 289.0625 C-130.16722656 289.05347656 -131.27195312 289.04445313 -132.41015625 289.03515625 C-133.69212891 289.01775391 -133.69212891 289.01775391 -135 289 C-135 289.66 -135 290.32 -135 291 C-136.98 291.33 -138.96 291.66 -141 292 C-140.896875 292.886875 -140.79375 293.77375 -140.6875 294.6875 C-141.10070387 299.06746098 -142.80356068 300.10090388 -146 303 C-148.39701491 306.54758207 -150.19798745 310.37167645 -152.03515625 314.23046875 C-153 316 -153 316 -155 318 C-160.96992292 318.8267699 -165.83664475 318.26106648 -171 315 C-171 312.69 -171 310.38 -171 308 C-171.9075 307.731875 -172.815 307.46375 -173.75 307.1875 C-176.86853162 306.04803652 -178.70426511 305.36132731 -181 303 C-181.13671875 300.00390625 -181.13671875 300.00390625 -180.6875 296.5625 C-179.97845718 291.21270177 -179.97845718 291.21270177 -181 286 C-179.6078125 285.13375 -179.6078125 285.13375 -178.1875 284.25 C-175.36854553 282.26014978 -173.95437133 280.73611987 -172 278 C-171.34 278 -170.68 278 -170 278 C-170.33 276.35 -170.66 274.7 -171 273 C-173.97 273.66 -176.94 274.32 -180 275 C-180.12375 275.721875 -180.2475 276.44375 -180.375 277.1875 C-181 280 -181 280 -182.125 282.5625 C-183.08884279 285.24749062 -182.97354831 286.37141956 -182 289 C-185.3340947 291.19097652 -188.04179141 292.43454163 -192 293 C-192 294.32 -192 295.64 -192 297 C-191.34 297.66 -190.68 298.32 -190 299 C-189.60235737 300.98821313 -189.26224651 302.98944339 -189 305 C-192.75 308 -192.75 308 -195 308 C-195.33 308.99 -195.66 309.98 -196 311 C-197.31647119 311.69937532 -198.65022151 312.36729133 -200 313 C-200.33 313.66 -200.66 314.32 -201 315 C-201.66 315 -202.32 315 -203 315 C-203.99 318.96 -204.98 322.92 -206 327 C-210.28301138 325.92924716 -210.42112296 325.82129728 -212.6875 322.5 C-215.03415074 319.64628403 -216.64306369 318.38927462 -220.3125 317.75 C-225.69193325 317.57705714 -229.99956565 319.44312845 -234 323 C-235.09415446 325.01405469 -235.71692947 326.87904341 -236.3203125 329.0859375 C-237.38028166 332.07090811 -239.79053406 333.79053406 -242 336 C-243.04783804 339.66743314 -243.25166274 342.38408541 -242 346 C-246 346 -246 346 -248 345 C-248.598125 345.165 -249.19625 345.33 -249.8125 345.5 C-252.48166589 346.11009506 -254.36974946 345.65756263 -257 345 C-256.9175 344.236875 -256.835 343.47375 -256.75 342.6875 C-256.8325 341.800625 -256.915 340.91375 -257 340 C-257.61875 339.566875 -258.2375 339.13375 -258.875 338.6875 C-262.24558612 336.01085808 -262.33516133 333.1884836 -263 329 C-262.34 328.34 -261.68 327.68 -261 327 C-261.99 326.34 -262.98 325.68 -264 325 C-264.6875 322.375 -264.6875 322.375 -265 320 C-265.55429687 320.28875 -266.10859375 320.5775 -266.6796875 320.875 C-267.40414062 321.24625 -268.12859375 321.6175 -268.875 322 C-269.59429687 322.37125 -270.31359375 322.7425 -271.0546875 323.125 C-273 324 -273 324 -275 324 C-274.828125 322.18359375 -274.828125 322.18359375 -274 320 C-271.671875 318.47265625 -271.671875 318.47265625 -268.75 317.0625 C-264.29685419 314.77824386 -261.25485364 312.76342452 -258 309 C-257.49210937 308.54753906 -256.98421875 308.09507812 -256.4609375 307.62890625 C-254.71208576 305.67898332 -254.28714302 304.14458318 -253.625 301.625 C-252.29292056 297.32729106 -250.6281847 294.81184314 -247 292 C-246.01 292 -245.02 292 -244 292 C-242.68 294.31 -241.36 296.62 -240 299 C-238.04020573 298.71831703 -236.08217622 298.42433283 -234.125 298.125 C-233.03445312 297.96257812 -231.94390625 297.80015625 -230.8203125 297.6328125 C-227.88067286 297.23743487 -227.88067286 297.23743487 -226 295 C-225.97624074 293.0068433 -225.97624074 293.0068433 -226.375 290.875 C-226.684375 288.956875 -226.684375 288.956875 -227 287 C-226.278125 287.0825 -225.55625 287.165 -224.8125 287.25 C-221.82496612 287.25165483 -221.82496612 287.25165483 -219.5 284.9375 C-217 283 -217 283 -214.1875 283.25 C-213.465625 283.4975 -212.74375 283.745 -212 284 C-211.67 283.01 -211.34 282.02 -211 281 C-207.62469385 281.58093505 -206.07575499 282.65144544 -203.6875 285.0625 C-200.80028418 287.68099227 -200.18980666 287.98192318 -196.0625 288.375 C-195.051875 288.25125 -194.04125 288.1275 -193 288 C-192.814375 287.175 -192.62875 286.35 -192.4375 285.5 C-190.51131879 280.81016748 -187.45957895 277.64458317 -184 274 C-184.61875 273.690625 -185.2375 273.38125 -185.875 273.0625 C-187.25 272.375 -188.625 271.6875 -190 271 C-199.03951481 270.05989046 -204.29956535 273.30996035 -211.36328125 278.59765625 C-213.12235763 279.92118345 -213.12235763 279.92118345 -214 282 C-220.625 282.125 -220.625 282.125 -224 281 C-226.3406065 281.27769908 -228.67624308 281.60539977 -231 282 C-231 282.99 -231 283.98 -231 285 C-231.60585937 285.02578125 -232.21171875 285.0515625 -232.8359375 285.078125 C-238.64651666 285.47145651 -243.26558552 286.69329275 -248.59375 289.01171875 C-251.99865199 290.41016064 -255.41136199 291.20252489 -259 292 C-260.4606285 289.35261084 -261 288.10551666 -261 285 C-263.64419562 286.34162748 -263.64419562 286.34162748 -266 289 C-266.52410159 291.5824683 -266.6865115 294.02790267 -266.76171875 296.66015625 C-267 299 -267 299 -269 302 C-269 302.99 -269 303.98 -269 305 C-272.51897334 304.40436086 -274.25416406 303.03675846 -276.9375 300.75 C-280.07972538 298.55253009 -281.46083103 297.96148793 -285.3359375 298.23828125 C-288.62225517 299.01739701 -291.7944136 299.94005376 -295 301 C-298.15560676 301.98087244 -298.71522406 302.09492531 -302 301 C-302 300.34 -302 299.68 -302 299 C-302.66 299 -303.32 299 -304 299 C-305.11658501 303.68965706 -304.80619523 306.53763531 -303 311 C-302.0925 311.144375 -301.185 311.28875 -300.25 311.4375 C-297.78523044 311.86409473 -295.41152893 312.35074221 -293 313 C-292.34 311.68 -291.68 310.36 -291 309 C-287.625 309.3125 -287.625 309.3125 -284 310 C-281.69558446 313.45662331 -281.74139865 314.94857881 -282 319 C-282.33 319.66 -282.66 320.32 -283 321 C-283.66 321 -284.32 321 -285 321 C-284.505 322.485 -284.505 322.485 -284 324 C-282.02 324 -280.04 324 -278 324 C-277 327 -277 327 -277 330 C-276.01 330.33 -275.02 330.66 -274 331 C-274.33 332.32 -274.66 333.64 -275 335 C-274.01 335.66 -273.02 336.32 -272 337 C-272 337.66 -272 338.32 -272 339 C-272.66 339 -273.32 339 -274 339 C-274.0825 339.7425 -274.165 340.485 -274.25 341.25 C-275.14809799 344.54302595 -276.38416074 345.85976788 -279 348 C-279.66 348 -280.32 348 -281 348 C-281.18175781 348.6290625 -281.36351562 349.258125 -281.55078125 349.90625 C-282.74954719 353.98820172 -283.96293112 358.03127189 -285.5 362 C-288.83840152 370.5225534 -288.83840152 370.5225534 -290 379.5 C-290 385.44453773 -291.70624342 391.05936513 -295 396 C-296.65 395.67 -298.3 395.34 -300 395 C-300 394.34 -300 393.68 -300 393 C-300.99 393.33 -301.98 393.66 -303 394 C-302.34 394.66 -301.68 395.32 -301 396 C-301 398.3125 -301 398.3125 -302 401 C-306.56514214 405.45897604 -311.62712688 408.77444748 -318 410 C-318 408.35 -318 406.7 -318 405 C-317.01 404.67 -316.02 404.34 -315 404 C-314.47198236 397.63922041 -314.47198236 397.63922041 -317 391.9375 C-317.66 391.298125 -318.32 390.65875 -319 390 C-318.65772428 392.97065509 -318.65772428 392.97065509 -318 396 C-317.34 396.33 -316.68 396.66 -316 397 C-316 398.65 -316 400.3 -316 402 C-318.1875 403.1875 -318.1875 403.1875 -321 404 C-323.4375 402.75 -323.4375 402.75 -326 401 C-327.5778125 400.5359375 -327.5778125 400.5359375 -329.1875 400.0625 C-332 399 -332 399 -333.375 397.0625 C-334 395 -334 395 -334 392 C-332.35 392 -330.7 392 -329 392 C-328.64110211 388.14184764 -328.53948292 386.55820253 -331.0625 383.5 C-333 381 -333 381 -332.6875 378.125 C-332.460625 377.09375 -332.23375 376.0625 -332 375 C-332.185625 373.7625 -332.37125 372.525 -332.5625 371.25 C-332.706875 370.1775 -332.85125 369.105 -333 368 C-332.34 367.34 -331.68 366.68 -331 366 C-329.68 366 -328.36 366 -327 366 C-325.79371992 363.66785852 -324.8345262 361.50357861 -324 359 C-324.99 359.33 -325.98 359.66 -327 360 C-327.99 359.67 -328.98 359.34 -330 359 C-330.28875 359.598125 -330.5775 360.19625 -330.875 360.8125 C-332 363 -332 363 -334 366 C-335.32 366 -336.64 366 -338 366 C-339.2316708 363.53665839 -338.95802288 362.33418611 -338.625 359.625 C-338.48964844 358.46871094 -338.48964844 358.46871094 -338.3515625 357.2890625 C-337.66498866 352.81870391 -337.66498866 352.81870391 -337 351 C-336.01 350.67 -335.02 350.34 -334 350 C-333.67 348.35 -333.34 346.7 -333 345 C-334.65 345 -336.3 345 -338 345 C-338.103125 345.598125 -338.20625 346.19625 -338.3125 346.8125 C-339.11316103 349.36005783 -339.86057532 350.41524098 -342 352 C-343.32 352 -344.64 352 -346 352 C-345.7525 350.7625 -345.505 349.525 -345.25 348.25 C-344.91015639 346.06570571 -344.91015639 346.06570571 -345 344 C-346.81260132 341.77068176 -346.81260132 341.77068176 -349 340 C-350.33180269 336.10703829 -349.83331247 332.98138179 -349 329 C-349.99 328.67 -350.98 328.34 -352 328 C-352.125 322.25 -352.125 322.25 -351 320 C-348.69 320 -346.38 320 -344 320 C-343.67 318.02 -343.34 316.04 -343 314 C-338.25 313.875 -338.25 313.875 -336 315 C-335.319375 314.030625 -334.63875 313.06125 -333.9375 312.0625 C-331.60889305 309.2186553 -331.04729408 309.01085438 -327.1875 308.125 C-325.6096875 308.063125 -325.6096875 308.063125 -324 308 C-324 307.071875 -324 306.14375 -324 305.1875 C-323 302 -323 302 -321.328125 300.93359375 C-317.52752314 299.45478814 -314.11298207 298.61440793 -310 299 C-310.185625 297.88625 -310.37125 296.7725 -310.5625 295.625 C-311 292 -311 292 -310 290 C-310.20625 289.21625 -310.4125 288.4325 -310.625 287.625 C-311 285 -311 285 -309.94140625 282.8515625 C-308 281 -308 281 -304.86328125 280.609375 C-303.69152344 280.65578125 -302.51976562 280.7021875 -301.3125 280.75 C-300.13300781 280.78609375 -298.95351563 280.8221875 -297.73828125 280.859375 C-296.83464844 280.90578125 -295.93101562 280.9521875 -295 281 C-294.71382812 280.39285156 -294.42765625 279.78570312 -294.1328125 279.16015625 C-292.28523951 275.63702568 -289.89191796 272.73726288 -286.10546875 271.26171875 C-285.43128906 271.05160156 -284.75710938 270.84148437 -284.0625 270.625 C-279.90324004 269.25938932 -278.08109036 267.11789522 -275.4453125 263.71875 C-273.26959652 261.13141208 -270.93087458 259.66526965 -268 258 C-267.34 258 -266.68 258 -266 258 C-265.62875 257.13375 -265.62875 257.13375 -265.25 256.25 C-263.39263106 252.90673592 -261.44242241 250.48080747 -257.75 249.25 C-257.1725 249.1675 -256.595 249.085 -256 249 C-256.33 247.02 -256.66 245.04 -257 243 C-255.12855305 242.17934931 -253.25265664 241.3688416 -251.375 240.5625 C-250.33085937 240.11003906 -249.28671875 239.65757812 -248.2109375 239.19140625 C-243.46265598 237.4295743 -239.04357462 236.85165957 -234 237 C-234 238.32 -234 239.64 -234 241 C-233.01 241.33 -232.02 241.66 -231 242 C-231 241.34 -231 240.68 -231 240 C-230.27296875 240.02320313 -229.5459375 240.04640625 -228.796875 240.0703125 C-215.47371234 240.35401517 -215.47371234 240.35401517 -203.1875 235.875 C-198.26453046 233.0411898 -193.01034015 233.94840584 -187.5078125 234.12890625 C-182.8309963 233.95704107 -180.77505899 232.60059619 -177 230 C-174.6875 229.9375 -174.6875 229.9375 -173 231 C-171.75 233.5625 -171.75 233.5625 -171 236 C-171.66 236 -172.32 236 -173 236 C-173 236.66 -173 237.32 -173 238 C-171.88625 237.79375 -170.7725 237.5875 -169.625 237.375 C-168.42875 237.25125 -167.2325 237.1275 -166 237 C-165.34 237.66 -164.68 238.32 -164 239 C-162.02 238.34 -160.04 237.68 -158 237 C-158 236.34 -158 235.68 -158 235 C-156.35 235 -154.7 235 -153 235 C-153 233.68 -153 232.36 -153 231 C-152.34 230.34 -151.68 229.68 -151 229 C-151.350625 228.443125 -151.70125 227.88625 -152.0625 227.3125 C-153.47294109 223.83341197 -152.47524602 221.20084486 -151.125 217.7890625 C-148.84923441 213.41137452 -146.76206857 210.57897507 -142.6875 207.75 C-136.03541369 202.9810001 -130.83470667 195.3468604 -129.28515625 187.27734375 C-129.04277749 184.49164813 -128.91535649 181.79323595 -129 179 C-129.66 179 -130.32 179 -131 179 C-130.01361868 170.45136187 -130.01361868 170.45136187 -128 168 C-126.08835982 167.08007926 -124.17097969 166.39083932 -122.15625 165.7265625 C-120.12570372 165.04235669 -118.25015244 164.22183689 -116.3125 163.3125 C-113.20066597 162.07950916 -111.28940894 161.70096282 -108 162 C-108 163.98 -108 165.96 -108 168 C-108.99 168 -109.98 168 -111 168 C-111.0825 168.78375 -111.165 169.5675 -111.25 170.375 C-112 173 -112 173 -113.875 174.125 C-114.926875 174.558125 -114.926875 174.558125 -116 175 C-117.70921589 176.5412312 -117.70921589 176.5412312 -119 178 C-119.99 177.67 -120.98 177.34 -122 177 C-121.34 177.66 -120.68 178.32 -120 179 C-119.01 179 -118.02 179 -117 179 C-117 182.66666667 -117 186.33333333 -117 190 C-115.87465895 191.35618499 -115.87465895 191.35618499 -112.9375 191.0625 C-111.968125 191.041875 -110.99875 191.02125 -110 191 C-109.690625 190.071875 -109.38125 189.14375 -109.0625 188.1875 C-106.50421602 184.2337884 -104.88753441 183.97478663 -100.52734375 182.7734375 C-96.95309135 181.67961683 -93.7919444 179.97445866 -90.484375 178.25390625 C-88.10733387 177.05417323 -85.7087876 176.01899419 -83.25 175 C-75.58493999 171.59180987 -70.9997629 166.22615775 -67 159 C-66.50906036 157.61529844 -66.04814791 156.21939942 -65.625 154.8125 C-63.53356086 148.62430065 -57.69580979 145.85356176 -52.1875 143 C-48.40766771 140.62834053 -47.69822575 139.0670577 -46 135 C-45.54577381 132.7819949 -45.15196751 130.55094363 -44.8125 128.3125 C-43.51084117 121.69283396 -41.03810381 117.79295522 -36.87109375 112.59375 C-33.26818112 107.59931579 -32.2753434 102.13391138 -31.5 96.125 C-30.9645682 92.77855126 -30.11213407 91.552162 -28 89 C-26.94781991 85.80815168 -26.83526438 82.78386406 -26.8125 79.4375 C-26.79832031 78.48746094 -26.78414063 77.53742188 -26.76953125 76.55859375 C-26.81641112 73.75774757 -26.81641112 73.75774757 -29 71 C-32.58357241 70.74984127 -32.58357241 70.74984127 -36 71 C-36.33 68.69 -36.66 66.38 -37 64 C-36.236875 64.103125 -35.47375 64.20625 -34.6875 64.3125 C-31.85698408 64.28820491 -31.85698408 64.28820491 -30.25 62 C-28.64812581 58.15550193 -28.20193894 55.17340486 -28 51 C-28.66 50.01 -29.32 49.02 -30 48 C-30.125 45.3125 -30.125 45.3125 -30 43 C-30.66 42.67 -31.32 42.34 -32 42 C-31.67 40.35 -31.34 38.7 -31 37 C-30.34 37 -29.68 37 -29 37 C-28.690625 36.071875 -28.690625 36.071875 -28.375 35.125 C-26.43691574 32.12977887 -24.3795295 31.84488238 -21 31 C-20.34 31 -19.68 31 -19 31 C-18.67 27.37 -18.34 23.74 -18 20 C-18.66 20 -19.32 20 -20 20 C-20 19.01 -20 18.02 -20 17 C-19.34 17 -18.68 17 -18 17 C-17.67 15.35 -17.34 13.7 -17 12 C-15.02 12.495 -15.02 12.495 -13 13 C-13 13.66 -13 14.32 -13 15 C-11.5459375 14.7215625 -11.5459375 14.7215625 -10.0625 14.4375 C-8.5465625 14.2209375 -8.5465625 14.2209375 -7 14 C-5.11525997 15.88474003 -5.30668 19.02746402 -4.9375 21.5625 C-4.76089844 22.76003906 -4.58429688 23.95757812 -4.40234375 25.19140625 C-4.26957031 26.11824219 -4.13679688 27.04507813 -4 28 C-1.2160817 26.60804085 -1.02101003 24.84424221 0 22 C1.65 22.66 3.3 23.32 5 24 C5 24.66 5 25.32 5 26 C6.32 26 7.64 26 9 26 C9.66 22.7 10.32 19.4 11 16 C8.58852789 16 6.84300642 16.65486315 4.5625 17.4375 C3.78003906 17.70433594 2.99757813 17.97117188 2.19140625 18.24609375 C1.46824219 18.49488281 0.74507813 18.74367187 0 19 C-0.99 19.33 -1.98 19.66 -3 20 C-3.33 19.67 -3.66 19.34 -4 19 C-3.94673811 12.28900151 -2.39102502 6.22568779 0 0 Z M2 4 C-0.44697666 8.36200187 -1.50269348 12.02693484 -2 17 C-0.35153231 16.55123384 1.29373455 16.09069512 2.9375 15.625 C3.85402344 15.36976563 4.77054687 15.11453125 5.71484375 14.8515625 C8.16745087 14.23339896 8.16745087 14.23339896 9 12 C9.99 12.33 10.98 12.66 12 13 C13.70795865 18.29467182 12.45456765 24.09086471 10 29 C7.69 28.67 5.38 28.34 3 28 C3 27.01 3 26.02 3 25 C2.34 25 1.68 25 1 25 C0.67 26.65 0.34 28.3 0 30 C-1.65 30.33 -3.3 30.66 -5 31 C-7.4021604 26.1956792 -7.61122229 21.26896105 -8 16 C-8.94875 16.020625 -9.8975 16.04125 -10.875 16.0625 C-14 16 -14 16 -16 15 C-16.06058594 15.89203125 -16.12117188 16.7840625 -16.18359375 17.703125 C-16.26738281 18.87359375 -16.35117187 20.0440625 -16.4375 21.25 C-16.51871094 22.41015625 -16.59992188 23.5703125 -16.68359375 24.765625 C-17.18251748 29.86573427 -17.18251748 29.86573427 -18 32 C-21 34 -21 34 -23.5 34.3125 C-26.20626756 34.79590423 -26.20626756 34.79590423 -27.875 37.3125 C-29.12117778 40.28948026 -29.13205155 41.0755335 -28 44 C-27.835 44.721875 -27.67 45.44375 -27.5 46.1875 C-27.15890376 48.00563141 -27.15890376 48.00563141 -26 49 C-25.55213557 54.4863393 -26.23434807 59.22492909 -29 64 C-31.6875 65.875 -31.6875 65.875 -34 67 C-34 67.66 -34 68.32 -34 69 C-31.69 69 -29.38 69 -27 69 C-23.82956706 74.19142606 -24.51498232 80.12985955 -25 86 C-25.80200289 88.96838876 -26.77312581 91.77312581 -29 94 C-29.48988875 96.20154822 -29.94164534 98.41162943 -30.375 100.625 C-31.80247842 107.39179672 -32.94412658 112.58434873 -37.5 117.9375 C-41.84381842 123.25867756 -43.20374359 129.15049733 -44.375 135.82421875 C-45.92852489 141.23242727 -48.57908499 143.69791567 -53.375 146.4375 C-59.25294031 150.0278514 -62.68225492 152.90616373 -65.4375 159.375 C-68.7267808 167.00613146 -73.82277081 172.7702982 -81 177 C-84 177.875 -84 177.875 -86 178 C-86 178.66 -86 179.32 -86 180 C-86.58120605 180.13954102 -87.16241211 180.27908203 -87.76123047 180.42285156 C-91.28830347 181.33212098 -94.69352108 182.53455666 -98.125 183.75 C-98.85332031 183.98976563 -99.58164062 184.22953125 -100.33203125 184.4765625 C-104.70918927 186.03633923 -104.70918927 186.03633923 -107.4296875 189.640625 C-107.71199219 190.80851562 -107.71199219 190.80851562 -108 192 C-109.87643761 193.87643761 -112.49805701 193.17984987 -114.9921875 193.23046875 C-117 193 -117 193 -120 191 C-119.67 188.36 -119.34 185.72 -119 183 C-120.98 182.67 -122.96 182.34 -125 182 C-124.34 179.69 -123.68 177.38 -123 175 C-122.195625 174.87625 -121.39125 174.7525 -120.5625 174.625 C-119.716875 174.41875 -118.87125 174.2125 -118 174 C-117.67 173.34 -117.34 172.68 -117 172 C-114.9375 170.875 -114.9375 170.875 -113 170 C-113 168.68 -113 167.36 -113 166 C-112.01 166 -111.02 166 -110 166 C-110 165.34 -110 164.68 -110 164 C-112.16280143 164.70591435 -114.32046387 165.42235886 -116.47265625 166.16015625 C-118.0706673 166.69118001 -119.68248322 167.18361224 -121.30859375 167.62109375 C-123.73984273 168.27429084 -123.73984273 168.27429084 -127 170 C-129.54217308 175.18212204 -128.7765802 177.7747641 -127 183 C-126.5636213 192.58214888 -131.3673782 199.35080047 -137.5 206.25 C-139.88650453 208.81460188 -142.30727449 211.30044617 -144.8125 213.75 C-147.37186255 216.38248719 -149.325761 218.71849155 -151 222 C-150.39619529 225.06201446 -150.39619529 225.06201446 -149 228 C-148.47933942 230.70743501 -148 233.24369187 -148 236 C-148.598125 236.144375 -149.19625 236.28875 -149.8125 236.4375 C-151.56150404 236.8872439 -153.28677023 237.42892341 -155 238 C-155 238.99 -155 239.98 -155 241 C-158.67410785 242.17571451 -162.16929183 242.07366746 -166 242 C-166.33 241.34 -166.66 240.68 -167 240 C-168.32 240 -169.64 240 -171 240 C-171 240.66 -171 241.32 -171 242 C-172.98 241.67 -174.96 241.34 -177 241 C-176.01 238.36 -175.02 235.72 -174 233 C-174.66 232.67 -175.32 232.34 -176 232 C-176.9075 232.639375 -177.815 233.27875 -178.75 233.9375 C-182.51313331 236.25993583 -185.50770329 236.155638 -189.875 236 C-195.46897412 235.8229755 -198.8356211 236.41832435 -203.734375 238.9765625 C-210.88976631 242.20882547 -219.2043152 242.22646745 -226.91796875 241.97265625 C-228.99029104 241.75770436 -228.99029104 241.75770436 -230 243 C-232.375 243.25 -232.375 243.25 -235 243 C-235.680625 242.2265625 -235.680625 242.2265625 -236.375 241.4375 C-238.0368931 239.63356777 -238.0368931 239.63356777 -241.1875 240.125 C-247.33445207 241.41730501 -247.33445207 241.41730501 -253 244 C-254.17082878 246.92914165 -254.17082878 246.92914165 -255 250 C-256.95597184 251.39712274 -258.95436401 252.73779907 -261 254 C-261.33 254.99 -261.66 255.98 -262 257 C-262.66 257 -263.32 257 -264 257 C-265.03190528 257.96704266 -266.02596117 258.97469597 -267 260 C-269.07385253 261.77528232 -271.16252005 263.53133543 -273.2578125 265.28125 C-275.24620869 266.98319228 -275.24620869 266.98319228 -276 270 C-276.66 270 -277.32 270 -278 270 C-278.33 270.66 -278.66 271.32 -279 272 C-280.77734375 272.45703125 -280.77734375 272.45703125 -282.9375 272.8125 C-285.09910256 273.23363097 -285.09910256 273.23363097 -287 274 C-288.59688639 276.48313064 -288.59688639 276.48313064 -289 279 C-289.66 279 -290.32 279 -291 279 C-291.70125 279.845625 -292.4025 280.69125 -293.125 281.5625 C-296 284 -296 284 -298.10546875 284.109375 C-300.08696182 283.84283788 -302.04749552 283.43021285 -304 283 C-304 283.66 -304 284.32 -304 285 C-305.65 285.33 -307.3 285.66 -309 286 C-308.814375 286.928125 -308.62875 287.85625 -308.4375 288.8125 C-308 292 -308 292 -309 295 C-308.01 296.485 -308.01 296.485 -307 298 C-306.21625 297.79375 -305.4325 297.5875 -304.625 297.375 C-303.75875 297.25125 -302.8925 297.1275 -302 297 C-301.34 297.66 -300.68 298.32 -300 299 C-298.68 299 -297.36 299 -296 299 C-295.67 298.34 -295.34 297.68 -295 297 C-293.4840625 297.0309375 -293.4840625 297.0309375 -291.9375 297.0625 C-288.04056214 297.13891203 -288.04056214 297.13891203 -284.5 296.1875 C-280.13947229 295.9539003 -278.71788278 297.15225862 -275.48046875 299.87109375 C-274.04523271 301.20211975 -274.04523271 301.20211975 -272 301 C-272 300.34 -272 299.68 -272 299 C-271.01 298.67 -270.02 298.34 -269 298 C-268.96132813 296.98679687 -268.96132813 296.98679687 -268.921875 295.953125 C-268.4600639 288.69009585 -268.4600639 288.69009585 -266.25 285.375 C-263.60426893 283.75816434 -262.04838235 283.66129085 -259 284 C-258.34 285.65 -257.68 287.3 -257 289 C-256.18208984 288.72736328 -256.18208984 288.72736328 -255.34765625 288.44921875 C-254.59355469 288.19785156 -253.83945313 287.94648438 -253.0625 287.6875 C-252.24523437 287.41421875 -251.42796875 287.1409375 -250.5859375 286.859375 C-248.9057249 286.30099619 -247.22351885 285.74856801 -245.5390625 285.203125 C-244.76304687 284.95046875 -243.98703125 284.6978125 -243.1875 284.4375 C-242.47980469 284.20933594 -241.77210938 283.98117187 -241.04296875 283.74609375 C-238.93480722 282.97619155 -236.9868589 282.04031039 -235 281 C-235 281.66 -235 282.32 -235 283 C-234.34 283 -233.68 283 -233 283 C-232.67 282.34 -232.34 281.68 -232 281 C-229.27734375 280.1484375 -229.27734375 280.1484375 -225.9375 279.375 C-224.28041016 278.98441406 -224.28041016 278.98441406 -222.58984375 278.5859375 C-221.30787109 278.29589844 -221.30787109 278.29589844 -220 278 C-220 278.66 -220 279.32 -220 280 C-215.83492783 279.45994624 -213.45554561 278.16934899 -210.1875 275.5625 C-209.39730469 274.94503906 -208.60710937 274.32757813 -207.79296875 273.69140625 C-207.20128906 273.13324219 -206.60960937 272.57507813 -206 272 C-206 271.34 -206 270.68 -206 270 C-199.23986632 268.53834947 -191.72074939 267.30594849 -185.6875 271.0625 C-184.800625 271.701875 -183.91375 272.34125 -183 273 C-179.88720906 272.82041591 -177.77427703 272.38713852 -175 271 C-173.00039988 270.960008 -170.99952758 270.95653201 -169 271 C-167.67446338 274.64522571 -167.97119106 275.93431562 -169.5625 279.5625 C-171.80002736 283.15824572 -174.34928462 284.9257299 -178 287 C-177.7834375 287.7734375 -177.7834375 287.7734375 -177.5625 288.5625 C-176.84190099 291.68509571 -176.42733561 294.82550692 -176 298 C-176.66 298 -177.32 298 -178 298 C-178.33 298.99 -178.66 299.98 -179 301 C-175.67366105 303.84694062 -175.67366105 303.84694062 -171.8125 305.8125 C-168.9188546 307.70833664 -168.92100131 310.77649541 -168 314 C-165.59771881 316.1250949 -163.04919289 316.20911887 -159.9375 316.4375 C-155.99458931 316.4480051 -155.99458931 316.4480051 -154.25 314 C-153.8375 313.01 -153.425 312.02 -153 311 C-149.637001 303.4853341 -149.637001 303.4853341 -146.375 301 C-143.70750401 298.75368759 -143.64875091 298.20037123 -143.0625 294.9375 C-142.38015068 291.44127203 -142.30248778 291.20385046 -139.125 289.0625 C-134.40359756 287.45722317 -129.95761079 286.66737068 -125 286 C-124.67 284.68 -124.34 283.36 -124 282 C-125.45449401 280.9944239 -126.91372443 279.99569565 -128.375 279 C-129.18710937 278.443125 -129.99921875 277.88625 -130.8359375 277.3125 C-132.86318187 275.82714156 -132.86318187 275.82714156 -135 276 C-132.89498944 263.69187944 -132.89498944 263.69187944 -130 259 C-126.3125 258.0625 -126.3125 258.0625 -123 258 C-123.66 259.98 -124.32 261.96 -125 264 C-124.34 264.66 -123.68 265.32 -123 266 C-123 265.34 -123 264.68 -123 264 C-122.01 264 -121.02 264 -120 264 C-119.34 265.32 -118.68 266.64 -118 268 C-115.03 267.67 -112.06 267.34 -109 267 C-109 268.65 -109 270.3 -109 272 C-108.38479492 272.02505615 -107.76958984 272.0501123 -107.13574219 272.07592773 C-104.34029844 272.19218487 -101.54516702 272.31477642 -98.75 272.4375 C-97.29787109 272.49647461 -97.29787109 272.49647461 -95.81640625 272.55664062 C-94.88183594 272.59853516 -93.94726562 272.64042969 -92.984375 272.68359375 C-92.12553711 272.72025146 -91.26669922 272.75690918 -90.38183594 272.79467773 C-88.15039857 272.98703514 -86.15017476 273.38846244 -84 274 C-83.56300781 273.14728516 -83.56300781 273.14728516 -83.1171875 272.27734375 C-80.57914845 267.49657209 -77.89567842 263.40173189 -74.234375 259.41015625 C-72.89422143 257.99895255 -72.89422143 257.99895255 -72 256 C-68.58421396 255.22661448 -66.00513463 254.68258906 -62.625 255.75 C-61 257 -61 257 -60 260 C-61.32 260 -62.64 260 -64 260 C-64.24915939 261.76813112 -64.47366632 263.53974982 -64.6875 265.3125 C-64.81511719 266.29863281 -64.94273437 267.28476562 -65.07421875 268.30078125 C-65.26981182 271.04368768 -65.26981182 271.04368768 -63.51953125 272.85546875 C-62.76736328 273.42201172 -62.76736328 273.42201172 -62 274 C-58.32966073 270.72291137 -56.30718811 267.28477792 -54 263 C-54.33 262.67 -54.66 262.34 -55 262 C-55.49828415 253.36307481 -55.49828415 253.36307481 -53 250 C-48.28799626 248.33254797 -43.82904471 247.45021356 -39 249 C-38.67 246.69 -38.34 244.38 -38 242 C-37.01 241.67 -36.02 241.34 -35 241 C-34.67 239.02 -34.34 237.04 -34 235 C-30.7 235 -27.4 235 -24 235 C-23.67 236.98 -23.34 238.96 -23 241 C-23.61875 241.2475 -24.2375 241.495 -24.875 241.75 C-27.35068687 243.20628639 -27.95125002 244.37812506 -29 247 C-29.66 247 -30.32 247 -31 247 C-31 252.28 -31 257.56 -31 263 C-30.34 262.67 -29.68 262.34 -29 262 C-28.67 261.01 -28.34 260.02 -28 259 C-25.22757903 257.04299696 -22.3858205 255.73884267 -19.25 254.5 C-18.1775 254.005 -17.105 253.51 -16 253 C-14.79535133 250.00161336 -14.79535133 250.00161336 -15.1875 246.6875 C-14.92834033 241.59069316 -12.70900545 239.08052838 -9.5625 235.25 C-7.53836482 233.63069186 -5.43216995 232.8545462 -3 232 C-3.92470228 229.61118577 -4.8649216 227.26654784 -6.0234375 224.98046875 C-10.84437285 215.21892944 -9.20322573 206.67974443 -5.89453125 196.6484375 C-2.53862161 187.33449751 -2.53862161 187.33449751 2 184 C4.42736449 177.83999011 4.19090683 170.6716785 4.25 164.125 C4.26401855 163.03711182 4.26401855 163.03711182 4.27832031 161.92724609 C4.25321944 157.76146637 3.574432 154.80436682 2 151 C1.69921875 147.66015625 1.69921875 147.66015625 1.6875 144.0625 C1.67074219 142.87785156 1.65398437 141.69320312 1.63671875 140.47265625 C2.03493676 136.66603459 3.03811344 134.26338379 5 131 C8.34945689 128.36828387 11.88065478 128.77530844 16 129 C16.99 129.33 17.98 129.66 19 130 C18.85851011 128.3954444 18.71164314 126.79136233 18.5625 125.1875 C18.48128906 124.29417969 18.40007812 123.40085937 18.31640625 122.48046875 C18.06510233 119.87256441 18.06510233 119.87256441 17 117 C18.485 116.505 18.485 116.505 20 116 C20.60061233 114.09821215 20.60061233 114.09821215 21 112 C21.66 111.01 22.32 110.02 23 109 C23.16713569 106.37468476 23.16713569 106.37468476 23 104 C23.5775 103.938125 24.155 103.87625 24.75 103.8125 C27.99553208 102.6405023 29.10440864 100.84338705 31 98 C32.58923368 94.29178807 33.47931712 91.84622452 32 88 C33.485 87.505 33.485 87.505 35 87 C35.67958603 84.60280568 35.67958603 84.60280568 36 82 C35.34 81.34 34.68 80.68 34 80 C33.83984375 78.046875 33.83984375 78.046875 33.9375 75.75 C34.00931566 72.02755489 33.95098823 68.63104598 33 65 C32.51015625 64.55011719 32.0203125 64.10023438 31.515625 63.63671875 C29.55866324 61.5234018 29.44923656 60.01632582 29.0625 57.1875 C28.25067818 52.62266582 27.06815043 49.59411908 24 46 C23.154375 45.608125 22.30875 45.21625 21.4375 44.8125 C17.21910538 41.67574502 16.76708126 37.01320825 16 32 C15.5526587 24.59853493 15.82891985 17.31925094 17 10 C15.906875 9.731875 14.81375 9.46375 13.6875 9.1875 C10.12955621 8.04172149 9.40111277 7.51025426 7 5 C4.39388923 4.27802838 4.39388923 4.27802838 2 4 Z M-38 250 C-37 252 -37 252 -37 252 Z M-188 282 C-189.06775224 283.96466413 -190.06553465 285.96855359 -191 288 C-190.67 288.66 -190.34 289.32 -190 290 C-188.35 289.34 -186.7 288.68 -185 288 C-185.33 286.02 -185.66 284.04 -186 282 C-186.66 282 -187.32 282 -188 282 Z M-216 285 C-216 285.66 -216 286.32 -216 287 C-217.32 287.33 -218.64 287.66 -220 288 C-220 288.66 -220 289.32 -220 290 C-220.99 290 -221.98 290 -223 290 C-223.33 292.64 -223.66 295.28 -224 298 C-224.66 298 -225.32 298 -226 298 C-226 298.66 -226 299.32 -226 300 C-226.58007812 299.98839844 -227.16015625 299.97679687 -227.7578125 299.96484375 C-232.2998246 299.91237826 -236.52713569 300.08248937 -241 301 C-241.99 299.35 -242.98 297.7 -244 296 C-246.94704146 296.16884601 -246.94704146 296.16884601 -250 298 C-251.15473428 300.67647713 -251.93813057 303.39531607 -252.78515625 306.18359375 C-254.16700872 309.38718099 -255.56229492 310.65755628 -258.3125 312.75 C-260.41944992 314.27357577 -260.41944992 314.27357577 -262 316 C-262.20370117 319.85060367 -262.20370117 319.85060367 -261 323 C-260.34 323 -259.68 323 -259 323 C-259 327.29 -259 331.58 -259 336 C-257.02 336.66 -255.04 337.32 -253 338 C-252.67 339.65 -252.34 341.3 -252 343 C-249.03 342.505 -249.03 342.505 -246 342 C-245.85304688 341.06027344 -245.85304688 341.06027344 -245.703125 340.1015625 C-245.55359375 339.28429687 -245.4040625 338.46703125 -245.25 337.625 C-245.11078125 336.81289063 -244.9715625 336.00078125 -244.828125 335.1640625 C-244 333 -244 333 -242.03125 331.890625 C-241.3609375 331.59671875 -240.690625 331.3028125 -240 331 C-237.74118446 327.28908876 -237 325.39989151 -237 321 C-236.29875 320.731875 -235.5975 320.46375 -234.875 320.1875 C-231.97040444 319.08457906 -231.97040444 319.08457906 -229.4375 317.375 C-224.34485587 315.33794235 -219.4184104 315.76327333 -214 316 C-214 316.66 -214 317.32 -214 318 C-212.04072937 319.7143618 -210.04119788 321.38405168 -208 323 C-207.35242375 321.56328432 -206.70700547 320.12559584 -206.0625 318.6875 C-205.70285156 317.88699219 -205.34320313 317.08648437 -204.97265625 316.26171875 C-203.92153959 313.90510392 -203.92153959 313.90510392 -203 311 C-201.3364521 310.32558869 -199.66933058 309.6599679 -198 309 C-194.78913173 306.33956629 -193.31421627 303.94264882 -192 300 C-192.99 299.34 -193.98 298.68 -195 298 C-195.1875 294.375 -195.1875 294.375 -195 291 C-195.99 290.7525 -196.98 290.505 -198 290.25 C-200.91976311 289.43600544 -203.40171746 288.32074311 -206.0625 286.875 C-209.50328424 285.06406093 -212.06360277 284.60636028 -216 285 Z M-322 305 C-323.10500474 307.69876157 -323.52265964 310.08822379 -324 313 C-326.375 313.625 -326.375 313.625 -329 314 C-329.66 313.34 -330.32 312.68 -331 312 C-331.0825 312.598125 -331.165 313.19625 -331.25 313.8125 C-332.22409548 316.65361183 -333.40494247 317.54982079 -336 319 C-339 318 -339 318 -341 316 C-341.020625 317.27875 -341.04125 318.5575 -341.0625 319.875 C-341.07410156 320.59429688 -341.08570313 321.31359375 -341.09765625 322.0546875 C-341.12649242 324.08185404 -341.12649242 324.08185404 -340 326 C-340.99 325.67 -341.98 325.34 -343 325 C-343.33 324.34 -343.66 323.68 -344 323 C-345.65 323 -347.3 323 -349 323 C-349 323.99 -349 324.98 -349 326 C-348.34 326 -347.68 326 -347 326 C-347 326.66 -347 327.32 -347 328 C-346.34 328 -345.68 328 -345 328 C-345 328.66 -345 329.32 -345 330 C-343.79252059 331.70790088 -343.79252059 331.70790088 -342 333 C-340.68 333 -339.36 333 -338 333 C-337.67 335.97 -337.34 338.94 -337 342 C-337.99 341.67 -338.98 341.34 -340 341 C-340.99 341.66 -341.98 342.32 -343 343 C-342.01 344.32 -341.02 345.64 -340 347 C-339.67 346.01 -339.34 345.02 -339 344 C-337.66666667 343.33333333 -336.33333333 342.66666667 -335 342 C-334.67 341.01 -334.34 340.02 -334 339 C-333.01 338.505 -333.01 338.505 -332 338 C-332.185625 336.865625 -332.37125 335.73125 -332.5625 334.5625 C-332.706875 333.386875 -332.85125 332.21125 -333 331 C-332 330 -332 330 -328.4375 329.9375 C-327.303125 329.958125 -326.16875 329.97875 -325 330 C-324.5875 331.2375 -324.175 332.475 -323.75 333.75 C-322.67862399 336.68598233 -322.07628159 337.92795627 -319.75 340.125 C-319.1725 340.74375 -318.595 341.3625 -318 342 C-318.25 345.25 -318.25 345.25 -319 348 C-318.01 348 -317.02 348 -316 348 C-317.28871694 350.77223992 -318.58083384 353.5428053 -319.875 356.3125 C-320.23980469 357.09818359 -320.60460937 357.88386719 -320.98046875 358.69335938 C-321.33496094 359.45068359 -321.68945312 360.20800781 -322.0546875 360.98828125 C-322.37937012 361.68477783 -322.70405273 362.38127441 -323.03857422 363.09887695 C-324 365 -324 365 -326 368 C-327.32 368 -328.64 368 -330 368 C-330 372.29 -330 376.58 -330 381 C-329.34 381 -328.68 381 -328 381 C-326.75424694 384.73725919 -326.51106557 388.08852457 -327 392 C-328.5 394 -328.5 394 -330 395 C-329.35824483 398.06153796 -329.35824483 398.06153796 -327.2578125 398.94921875 C-326.55398438 399.19285156 -325.85015625 399.43648437 -325.125 399.6875 C-324.42632812 399.93886719 -323.72765625 400.19023438 -323.0078125 400.44921875 C-320.86481134 401.13227296 -320.86481134 401.13227296 -318 401 C-318.309375 400.38125 -318.61875 399.7625 -318.9375 399.125 C-320.79664519 395.40670961 -321.25416237 393.23603951 -321 389 C-320 386.8125 -320 386.8125 -319 385 C-319 384.01 -319 383.02 -319 382 C-316.69 382.33 -314.38 382.66 -312 383 C-312 384.98 -312 386.96 -312 389 C-312.66 389 -313.32 389 -314 389 C-313.855625 389.556875 -313.71125 390.11375 -313.5625 390.6875 C-313.376875 391.450625 -313.19125 392.21375 -313 393 C-312.79375 393.763125 -312.5875 394.52625 -312.375 395.3125 C-311.90197324 398.70252511 -312.40802522 401.64547623 -313 405 C-308.41173718 403.06273348 -306.19471406 401.51135667 -304 397 C-304.99 396.505 -304.99 396.505 -306 396 C-305.67 394.35 -305.34 392.7 -305 391 C-298.25 392.875 -298.25 392.875 -296 394 C-295.32071516 391.98337313 -294.65715509 389.96144639 -294 387.9375 C-293.62875 386.81214844 -293.2575 385.68679688 -292.875 384.52734375 C-291.85396123 381.08833926 -291.85396123 381.08833926 -292.09375 377.8046875 C-291.95743954 372.27275447 -290.19804894 367.42260455 -288.5 362.1875 C-287.84150138 360.11920415 -287.1851387 358.05022664 -286.53125 355.98046875 C-286.23798828 355.07192139 -285.94472656 354.16337402 -285.64257812 353.22729492 C-284.90760127 351.0660847 -284.90760127 351.0660847 -285 349 C-284.34 349 -283.68 349 -283 349 C-279.97482091 345.94441577 -279.97482091 345.94441577 -279 342 C-278.34 342 -277.68 342 -277 342 C-276.67 340.68 -276.34 339.36 -276 338 C-276.66 337.67 -277.32 337.34 -278 337 C-278.72159424 335.35636866 -279.39351421 333.68949614 -280 332 C-280.66 332 -281.32 332 -282 332 C-281.67 330.35 -281.34 328.7 -281 327 C-284.3 326.67 -287.6 326.34 -291 326 C-291 324.35 -291 322.7 -291 321 C-289.68 321 -288.36 321 -287 321 C-287 320.34 -287 319.68 -287 319 C-286.01 318.67 -285.02 318.34 -284 318 C-284.495 315.03 -284.495 315.03 -285 312 C-287.475 311.505 -287.475 311.505 -290 311 C-290.66 311.99 -291.32 312.98 -292 314 C-296.39070571 314.49894383 -300.11161086 314.11325497 -304 312 C-304.984375 309.8984375 -304.984375 309.8984375 -305.875 307.4375 C-307.07921811 304.09282734 -307.07921811 304.09282734 -309.8125 302.08203125 C-314.51506811 301.32498904 -318.19412216 302.00966741 -322 305 Z M-331 331 C-330.67 333.64 -330.34 336.28 -330 339 C-328.02 339.495 -328.02 339.495 -326 340 C-325.855625 341.11375 -325.71125 342.2275 -325.5625 343.375 C-325.21627965 346.82142047 -325.21627965 346.82142047 -324 349 C-322.35 347.68 -320.7 346.36 -319 345 C-319.9639104 342.84973834 -320.71087924 341.25298067 -322.5 339.6875 C-324.76352255 337.14103713 -325.2014695 334.25554744 -326 331 C-327.65 331 -329.3 331 -331 331 Z M-347 334 C-346.67 336.31 -346.34 338.62 -346 341 C-345.34 341 -344.68 341 -344 341 C-344 339.68 -344 338.36 -344 337 C-344.66 337 -345.32 337 -346 337 C-346.33 336.01 -346.66 335.02 -347 334 Z M-342 335 C-342 336.32 -342 337.64 -342 339 C-341.34 339 -340.68 339 -340 339 C-340 337.68 -340 336.36 -340 335 C-340.66 335 -341.32 335 -342 335 Z M-329 341 C-331.34973818 342.89755144 -331.34973818 342.89755144 -331.125 346.125 C-331.08375 347.07375 -331.0425 348.0225 -331 349 C-329.35 348.01 -327.7 347.02 -326 346 C-326.34786708 344.02463255 -326.34786708 344.02463255 -327 342 C-327.66 341.67 -328.32 341.34 -329 341 Z M-330 351 C-330 351.66 -330 352.32 -330 353 C-328.01508358 352.73323796 -328.01508358 352.73323796 -326 352 C-325.67 351.01 -325.34 350.02 -325 349 C-327.32357511 348.81509993 -327.32357511 348.81509993 -330 351 Z M-334 353 C-335.485 356.465 -335.485 356.465 -337 360 C-336.34 360 -335.68 360 -335 360 C-334.67 360.66 -334.34 361.32 -334 362 C-332.33153266 360.30504044 -332.33153266 360.30504044 -331 358 C-331.22197813 355.3015411 -331.22197813 355.3015411 -332 353 C-332.66 353 -333.32 353 -334 353 Z M-322 353 C-322.33 354.65 -322.66 356.3 -323 358 C-322.34 357.34 -321.68 356.68 -321 356 C-321.33 355.01 -321.66 354.02 -322 353 Z M-327 354 C-327.33 354.66 -327.66 355.32 -328 356 C-327.01 356.33 -326.02 356.66 -325 357 C-325.33 356.01 -325.66 355.02 -326 354 C-326.33 354 -326.66 354 -327 354 Z M-317 384 C-313 385 -313 385 -313 385 Z " fill="#000000" transform="translate(418,194)"/>
<path d="M0 0 C1.32 0 2.64 0 4 0 C4 0.99 4 1.98 4 3 C4.66 3 5.32 3 6 3 C6 3.99 6 4.98 6 6 C6.76441406 6.24363281 7.52882813 6.48726562 8.31640625 6.73828125 C11.39903216 8.18760901 12.22222236 9.29887302 13.9375 12.1875 C15.80769804 15.194203 17.67472577 17.88569334 20.0625 20.5 C22.23758069 22.9372058 23.73017279 25.26760339 25.1875 28.1875 C33.45330279 43.68918128 48.57239791 54.76562623 65 60 C66.76451244 60.36531854 68.53485288 60.70515676 70.3125 61 C71.529375 61.33 72.74625 61.66 74 62 C75.3125 65.0625 75.3125 65.0625 76 68 C77.81757499 68.73277139 77.81757499 68.73277139 80 69 C80.68578125 69.1134375 81.3715625 69.226875 82.078125 69.34375 C86.72200643 69.67784219 89.41181958 69.18212972 93 66.125 C96.9317592 62.28008689 100.5439123 58.1185276 104.1171875 53.94140625 C104.73851562 53.30074219 105.35984375 52.66007812 106 52 C106.66 52 107.32 52 108 52 C109.59599308 58.36734739 108.2189425 61.56022686 105 67.125 C101.93735044 72.14221828 101.93735044 72.14221828 101.12890625 77.78515625 C102.1544863 80.392797 103.56293375 82.69412518 105.01171875 85.0859375 C106.64969079 88.25829441 107.26696317 91.51807505 108 95 C109.90573362 95.63412875 109.90573362 95.63412875 112 96 C112.598125 95.525625 113.19625 95.05125 113.8125 94.5625 C116.87914611 92.37203849 119.32778639 92.78814152 123 93 C122.875 94.8125 122.875 94.8125 122 97 C120.00854609 98.01691264 118.00812926 99.01642648 116 100 C115.70609375 100.67160156 115.4121875 101.34320313 115.109375 102.03515625 C114 104 114 104 111.79296875 104.65234375 C110.50326172 104.79349609 110.50326172 104.79349609 109.1875 104.9375 C104.34369147 105.70746956 102.12010989 107.07470046 99 111 C98 112 98 112 95 112.0625 C94.01 112.041875 93.02 112.02125 92 112 C91.67 112 91.34 112 91 112 C90.67 112.99 90.34 113.98 90 115 C88.24929483 114.88529863 86.49942464 114.75780972 84.75 114.625 C83.77546875 114.55539063 82.8009375 114.48578125 81.796875 114.4140625 C79 114 79 114 76.90625 112.87109375 C75.02013973 111.78159997 75.02013973 111.78159997 72.921875 112.43359375 C61.92789895 117.51534167 54.3827455 126.01499935 48 136.1875 C46.81853643 139.01286821 46.81853643 139.01286821 47 142.25 C47 147.19370903 45.57169023 151.35041641 44 156 C40.76156078 155.41820248 39.19359632 154.48861946 36.875 152.1875 C33.3934523 149.06227275 29.98013377 147.65584162 25.625 146.0625 C19.10245007 143.42242027 13.42361988 139.42453201 8 135 C-0.08049944 129.21592581 -0.08049944 129.21592581 -9.5703125 128.12109375 C-15.81979634 130.38175913 -22.35331244 135.52996867 -26 141 C-27.8125 140.875 -27.8125 140.875 -30 140 C-31.05226728 138.02699884 -32.04788888 136.02323613 -33 134 C-35.26490842 131.03218896 -36.32186411 130.14127831 -40 129.375 C-43.23318696 129.73568146 -43.23318696 129.73568146 -45.3125 132.625 C-46.94121458 135.88242915 -47.65692147 138.39767548 -48 142 C-47.2575 142.28875 -46.515 142.5775 -45.75 142.875 C-43 144 -43 144 -41 145.125 C-38.99812439 146.19269921 -38.99812439 146.19269921 -36.625 145.78125 C-34 146 -34 146 -31.9375 147.8984375 C-30.9784375 149.12433594 -30.9784375 149.12433594 -30 150.375 C-27.17355909 153.96503584 -25.23723596 155.38855542 -21 157 C-20.1875 159.625 -20.1875 159.625 -20 162 C-20.99 162 -21.98 162 -23 162 C-23.33 162.99 -23.66 163.98 -24 165 C-27.62481539 165.17682026 -30.1402732 164.95404844 -33.625 163.8125 C-36.93864377 162.59935686 -36.93864377 162.59935686 -39.3125 164.375 C-39.869375 164.91125 -40.42625 165.4475 -41 166 C-41.66 166 -42.32 166 -43 166 C-43.061875 167.093125 -43.12375 168.18625 -43.1875 169.3125 C-44 173 -44 173 -46.5 174.8125 C-47.7375 175.4003125 -47.7375 175.4003125 -49 176 C-49.33 176.66 -49.66 177.32 -50 178 C-52.31 178 -54.62 178 -57 178 C-59.43315393 173.13369214 -60.57959668 170.41576005 -59 165 C-58.46375 163.845 -57.9275 162.69 -57.375 161.5 C-55.85937054 157.6420341 -55.84112143 155.92235823 -57 152 C-58.72226496 148.75150023 -58.72226496 148.75150023 -62 148 C-62.33 147.01 -62.66 146.02 -63 145 C-63.53625 144.5875 -64.0725 144.175 -64.625 143.75 C-66 142 -66 142 -65.75 138.9375 C-65.62753906 138.33292969 -65.50507813 137.72835937 -65.37890625 137.10546875 C-64.79195996 133.84398369 -64.72315676 130.54182608 -64.57421875 127.234375 C-63.81161989 124.26698351 -62.56682806 123.5712385 -60 122 C-59.113125 121.484375 -58.22625 120.96875 -57.3125 120.4375 C-54.88644136 119.2091532 -54.88644136 119.2091532 -54 117 C-52.35 117 -50.7 117 -49 117 C-48.731875 116.4225 -48.46375 115.845 -48.1875 115.25 C-46.98280141 112.9674132 -45.59201885 111.0262058 -44 109 C-44.825 108.13375 -45.65 107.2675 -46.5 106.375 C-48.58756239 103.88643693 -48.9852047 103.12822593 -49.375 99.75 C-49 97 -49 97 -48 95 C-44.875 94.0625 -44.875 94.0625 -41 94 C-39.12638129 95.13680236 -37.53475857 96.46032363 -35.84375 97.8515625 C-32.61905877 99.86016254 -29.69602739 99.32421293 -26 99 C-25.67 99.99 -25.34 100.98 -25 102 C-21.62537285 101.45276317 -19.91765 100.9451 -17 99 C-15.71511925 95.04652076 -16.11439517 92.02061139 -17 88.0625 C-17.94728213 83.71806816 -18.30528509 80.35095031 -17 76 C-14.5625 73.5625 -14.5625 73.5625 -12 72 C-11.34 72 -10.68 72 -10 72 C-8.93652914 68.46090845 -8.79638907 65.0557843 -8.625 61.375 C-8.3417732 56.89444484 -7.86132204 52.94559689 -6.4375 48.6875 C-3.20590661 38.83273995 -5.39304202 29.21391597 -10 20 C-10.31557831 14.00401214 -9.50301405 8.79733991 -8 3 C-6.02 3.33 -4.04 3.66 -2 4 C-1.34 2.68 -0.68 1.36 0 0 Z M1 3 C0.34 3.99 -0.32 4.98 -1 6 C-3.625 6.6875 -3.625 6.6875 -6 7 C-9.14581675 14.40192176 -7.36172503 20.03119779 -4.9375 27.3125 C-2.08319714 36.33376379 -2.21827524 43.3715872 -5.27734375 52.25 C-6.44867142 56.70737663 -6.47038492 61.21057221 -6.59375 65.80078125 C-7.04116056 69.32413941 -7.86385765 71.18666567 -10 74 C-11.6396875 74.99 -11.6396875 74.99 -13.3125 76 C-15.00424809 77.15689757 -15.00424809 77.15689757 -16 79 C-15.89210397 82.36725537 -15.281157 85.46642898 -14.609375 88.765625 C-13.80493877 93.03532497 -13.85724931 95.80991413 -15 100 C-17.125 102.5 -17.125 102.5 -20 104 C-23.8125 104.25 -23.8125 104.25 -27 104 C-27.33 103.01 -27.66 102.02 -28 101 C-28.804375 101.28875 -29.60875 101.5775 -30.4375 101.875 C-35.22157851 102.0428624 -37.25856422 100.10563598 -40.94921875 97.25 C-41.62597656 96.8375 -42.30273438 96.425 -43 96 C-44.485 96.495 -44.485 96.495 -46 97 C-46.9593157 99.19514873 -46.9593157 99.19514873 -47 102 C-45.35366057 104.0167658 -43.68732277 106.01739574 -42 108 C-41.79202135 111.32765835 -43.39950618 112.47745861 -45.5625 115.0625 C-48.31928623 117.7485962 -48.31928623 117.7485962 -48 121 C-49.65 120.67 -51.3 120.34 -53 120 C-53 120.66 -53 121.32 -53 122 C-53.66 122 -54.32 122 -55 122 C-55 122.66 -55 123.32 -55 124 C-56.4540625 124.2165625 -56.4540625 124.2165625 -57.9375 124.4375 C-60.86486773 124.67562341 -60.86486773 124.67562341 -62 126 C-62.51100103 128.4220858 -62.9374898 130.80668201 -63.3125 133.25 C-63.43689453 133.91902344 -63.56128906 134.58804688 -63.68945312 135.27734375 C-64.24010491 138.94115758 -64.22169585 140.65099845 -62.2109375 143.81640625 C-61.11652344 144.89728516 -61.11652344 144.89728516 -60 146 C-54.13888889 151.86111111 -54.13888889 151.86111111 -53.6875 155.5625 C-53.99348668 158.92835345 -54.63307576 160.49383803 -56.125 163.4375 C-57.7125266 166.71246747 -58.29237402 168.53556323 -57.25 172.0625 C-56.36629847 175.05150427 -56.36629847 175.05150427 -54.375 175.75 C-51.78427277 176.23271486 -51.78427277 176.23271486 -48.875 174.5 C-45.38300364 171.46348143 -45.15663845 169.3952261 -44 165 C-41.32535355 161.76227008 -39.29082286 159.4767581 -35 159 C-35 159.66 -35 160.32 -35 161 C-32.03 161.66 -29.06 162.32 -26 163 C-25.67 162.01 -25.34 161.02 -25 160 C-24.34 159.67 -23.68 159.34 -23 159 C-23.86625 158.67 -24.7325 158.34 -25.625 158 C-28.97760438 156.01327148 -29.88163159 154.94340472 -31.9375 151.8125 C-33.35380281 149.66315886 -33.35380281 149.66315886 -35 148 C-38.45821402 147.74996036 -38.45821402 147.74996036 -42 148 C-44.89310899 146.84162628 -47.02379501 145.419248 -49 143 C-49.89267413 137.37615296 -49.09809766 133.8854617 -46 129 C-42.78022427 127.39011214 -39.4820974 127.39616808 -36 128 C-33.25 130.25 -33.25 130.25 -31 133 C-30.236875 133.763125 -29.47375 134.52625 -28.6875 135.3125 C-28.130625 135.869375 -27.57375 136.42625 -27 137 C-26.23816406 136.41992188 -26.23816406 136.41992188 -25.4609375 135.828125 C-11.69143693 125.41075004 -11.69143693 125.41075004 -3 126 C3.42305675 128.42648811 9.15963908 133.06370439 14.58984375 137.21557617 C18.87091643 140.42455636 23.17261054 142.5731186 28.125 144.5625 C33.06335922 146.55168956 36.87224269 148.54508225 41 152 C41.66 152 42.32 152 43 152 C44.29732891 149.40534218 44.14633051 147.3365432 44.25 144.4375 C45.23492611 132.60431627 52.78315061 124.94596424 61 117 C65.98885111 112.83209907 70.38947525 110 77 110 C77.99 110.66 78.98 111.32 80 112 C83.5 112.5 83.5 112.5 87 112 C88.63676257 110.0399719 88.63676257 110.0399719 90 108 C92.6875 107.75 92.6875 107.75 95 108 C95 108.66 95 109.32 95 110 C95.66 110 96.32 110 97 110 C97 109.34 97 108.68 97 108 C97.66 108 98.32 108 99 108 C99.33 107.01 99.66 106.02 100 105 C102.6875 104.12109375 102.6875 104.12109375 106 103.4375 C108.0132123 103.01728941 110.01834723 102.55013907 112 102 C112.33 101.34 112.66 100.68 113 100 C111.906875 99.54625 110.81375 99.0925 109.6875 98.625 C107.16933411 97.20916376 106.17250732 96.396631 105.0078125 93.71875 C104.53869511 91.96878402 104.10048728 90.21027844 103.69140625 88.4453125 C103.08406751 85.73740249 103.08406751 85.73740249 100.75 83 C98.15820824 78.55692842 98.77479696 74.88530328 100 70 C101.11305654 67.40286806 102.41357024 65.37964463 104 63 C105.78962819 60.38142305 105.78962819 60.38142305 107 58 C106.67 57.01 106.34 56.02 106 55 C105.319375 56.03125 104.63875 57.0625 103.9375 58.125 C101.48207044 61.60352521 98.70352209 64.13265338 95.35546875 66.73828125 C94.90816406 67.15464844 94.46085938 67.57101563 94 68 C94 68.66 94 69.32 94 70 C90.80843552 71.06385483 88.41502524 71.16677982 85.0625 71.1875 C83.50208984 71.20876953 83.50208984 71.20876953 81.91015625 71.23046875 C78.94743945 70.99583749 77.37408987 70.76861729 75 69 C74.72929688 68.17371094 74.45859375 67.34742187 74.1796875 66.49609375 C73.19801562 63.6704497 73.19801562 63.6704497 69.9453125 62.84765625 C68.68460938 62.58855469 67.42390625 62.32945313 66.125 62.0625 C47.95664569 57.72908152 33.22274364 45.83873078 23.19921875 30.02734375 C22.80347656 29.35832031 22.40773438 28.68929687 22 28 C19.07825804 23.52608262 15.96808121 19.29831632 12.66015625 15.10546875 C11.39739407 13.50398918 10.16116248 11.88154997 8.9375 10.25 C6.52647132 7.45009572 3.8905822 5.29932675 1 3 Z " fill="#000000" transform="translate(449,24)"/>
<path d="M0 0 C1.32 0.33 2.64 0.66 4 1 C4.35858439 4.85478218 4.2754818 6.57759458 2.125 9.875 C1.42375 10.57625 0.7225 11.2775 0 12 C-0.66 12 -1.32 12 -2 12 C-2 12.66 -2 13.32 -2 14 C-5.19641774 16.39731331 -8.00118212 18.38479725 -12 19 C-11.34 20.65 -10.68 22.3 -10 24 C-10.66 24.33 -11.32 24.66 -12 25 C-12.66 24.67 -13.32 24.34 -14 24 C-13.67 25.98 -13.34 27.96 -13 30 C-14.32 30.33 -15.64 30.66 -17 31 C-17 31.66 -17 32.32 -17 33 C-18.65 33 -20.3 33 -22 33 C-22.2895202 27.9816499 -22.00114533 25.91453739 -19 22 C-19.22197813 19.3015411 -19.22197813 19.3015411 -20 17 C-19.360625 16.87625 -18.72125 16.7525 -18.0625 16.625 C-17.381875 16.41875 -16.70125 16.2125 -16 16 C-15.67 15.34 -15.34 14.68 -15 14 C-14.01 13.67 -13.02 13.34 -12 13 C-12.66 12.34 -13.32 11.68 -14 11 C-14.125 8.375 -14.125 8.375 -14 6 C-12.205625 6.4640625 -12.205625 6.4640625 -10.375 6.9375 C-8.18477428 7.33322853 -8.18477428 7.33322853 -6 7 C-3.49859182 5.00096668 -1.75384765 2.66398829 0 0 Z M1 3 C-0.98 5.97 -0.98 5.97 -3 9 C-2.01 9 -1.02 9 0 9 C0.66 8.01 1.32 7.02 2 6 C1.67 5.01 1.34 4.02 1 3 Z M-8 11 C-8 11.66 -8 12.32 -8 13 C-7.01 13 -6.02 13 -5 13 C-5 12.34 -5 11.68 -5 11 C-5.99 11 -6.98 11 -8 11 Z M-17 19 C-16.67 19.99 -16.34 20.98 -16 22 C-15.34 21.34 -14.68 20.68 -14 20 C-14.99 19.67 -15.98 19.34 -17 19 Z M-19 26 C-19.33 26.99 -19.66 27.98 -20 29 C-19.01 29 -18.02 29 -17 29 C-17.66 28.01 -18.32 27.02 -19 26 Z " fill="#000000" transform="translate(256,559)"/>
<path d="M0 0 C1.1702623 0.00222061 2.3405246 0.00444122 3.54624939 0.00672913 C4.19013107 0.0065831 4.83401276 0.00643707 5.49740601 0.00628662 C7.63473327 0.00698567 9.77197438 0.01477761 11.9092865 0.02259827 C13.3875931 0.02446248 14.86590032 0.02588637 16.34420776 0.02688599 C20.24211827 0.03071093 24.13999174 0.040541 28.03788757 0.05158997 C32.01259358 0.0618046 35.98730554 0.06638372 39.96202087 0.07142639 C47.76607425 0.0821633 55.57009707 0.09923942 63.37413025 0.12025452 C66.04962655 6.01278184 68.54688726 11.94476332 70.8624115 17.98744202 C71.16986801 18.78884613 71.47732452 19.59025024 71.7940979 20.41593933 C72.4349594 22.09090363 73.07433579 23.76643686 73.71226501 25.44252014 C74.69336145 28.01288956 75.68706138 30.57817698 76.68077087 33.14369202 C77.30460186 34.77880975 77.92767652 36.41421627 78.5499115 38.04994202 C78.84875748 38.8155545 79.14760345 39.58116699 79.45550537 40.36997986 C81.48831212 45.7777089 81.48831212 45.7777089 80.37413025 49.12025452 C76.526895 40.08876257 72.9466642 30.96743896 69.44273376 21.79847717 C68.54924579 19.46288129 67.65025268 17.12944943 66.75108337 14.79603577 C66.181089 13.30788199 65.61141519 11.81960538 65.042099 10.33119202 C64.77342514 9.63545074 64.50475128 8.93970947 64.22793579 8.22288513 C62.37413025 3.34922298 62.37413025 3.34922298 62.37413025 1.12025452 C41.25413025 1.12025452 20.13413025 1.12025452 -1.62586975 1.12025452 C-2.61586975 4.09025452 -3.60586975 7.06025452 -4.62586975 10.12025452 C-5.14959344 11.620978 -5.67889643 13.11980099 -6.21986389 14.61439514 C-6.49347244 15.37127625 -6.76708099 16.12815735 -7.04898071 16.90797424 C-8.27122591 20.2661792 -9.49514498 23.62375278 -10.72377014 26.97962952 C-11.37166436 28.75326249 -12.01647804 30.52802353 -12.65834045 32.30384827 C-13.58986949 34.88062926 -14.53060392 37.45387428 -15.473526 40.02650452 C-15.76002518 40.82431335 -16.04652435 41.62212219 -16.34170532 42.44410706 C-18.39769741 48.00616834 -18.39769741 48.00616834 -20.62586975 49.12025452 C-19.97545752 43.5121667 -18.08228144 38.60881113 -16.06336975 33.38197327 C-15.71201965 32.46060074 -15.36066956 31.53922821 -14.99867249 30.5899353 C-14.25824864 28.65167692 -13.51511117 26.71445324 -12.76942444 24.7782135 C-11.62398359 21.8028551 -10.48754795 18.82417468 -9.35243225 15.84486389 C-8.63160239 13.96119963 -7.91026603 12.07772909 -7.18836975 10.19447327 C-6.84668762 9.29975815 -6.50500549 8.40504303 -6.15296936 7.48321533 C-5.83594055 6.66178543 -5.51891174 5.84035553 -5.192276 4.99403381 C-4.91327454 4.26822617 -4.63427307 3.54241852 -4.34681702 2.7946167 C-3.19742177 0.12520658 -3.05313508 0.13982159 0 0 Z " fill="#000000" transform="translate(219.62586975097656,551.8797454833984)"/>
<path d="M0 0 C0.125 6.75 0.125 6.75 -1 9 C-0.01 9.33 0.98 9.66 2 10 C1.34680712 14.56260099 0.84835194 18.0338214 -2.25 21.5625 C-5.42409636 23.22168673 -7.46692232 23.32865839 -11 23 C-11 22.01 -11 21.02 -11 20 C-10.34 20 -9.68 20 -9 20 C-9 19.01 -9 18.02 -9 17 C-9.66 17 -10.32 17 -11 17 C-11.72089404 12.85485925 -11.58709007 10.94290223 -9.32421875 7.30859375 C-3.63744666 0 -3.63744666 0 0 0 Z M-3 4 C-3.33 4.99 -3.66 5.98 -4 7 C-4.99 7.33 -5.98 7.66 -7 8 C-8.21869929 10.50447516 -8.21869929 10.50447516 -9 13 C-8.01 13.33 -7.02 13.66 -6 14 C-6.33 16.31 -6.66 18.62 -7 21 C-3.33112448 18.48929246 -3.33112448 18.48929246 -1.1875 14.75 C-1.125625 14.1725 -1.06375 13.595 -1 13 C-1.99 13 -2.98 13 -4 13 C-3.34 10.03 -2.68 7.06 -2 4 C-2.33 4 -2.66 4 -3 4 Z " fill="#000000" transform="translate(346,324)"/>
</svg>
